<?xml version="1.0" encoding="UTF-8"?>
<!-- Generated by Pixelmator Pro 3.6.14 -->
<svg width="46" height="46" viewBox="0 0 46 46" xmlns="http://www.w3.org/2000/svg">
    <path id="Path" fill="#ff6666" stroke="none" d="M 43.9291 31.035999 L 25.9216 0 C 16.8204 5.228401 13.702 16.8081 18.956499 25.864 L 27.4503 40.502399 C 28.711901 42.6768 30.7899 44.263401 33.2271 44.9133 C 35.664398 45.563202 38.261299 45.223 40.446499 43.967701 C 42.631699 42.712299 44.226299 40.644699 44.879398 38.219501 C 45.532501 35.7943 45.190701 33.2103 43.9291 31.035999 Z"/>
    <path id="path1" fill="#202e52" stroke="none" d="M 18.9942 35.7836 C 18.9942 30.563299 14.7422 26.331301 9.49708 26.331301 C 4.25199 26.331301 -1e-06 30.563299 -0 35.7836 C -0 41.004002 4.25199 45.235901 9.49708 45.235901 C 14.7422 45.235901 18.9942 41.004002 18.9942 35.7836 Z"/>
</svg>
