<?xml version="1.0" encoding="UTF-8"?>
<!-- Generated by Pixelmator Pro 3.6.14 -->
<svg width="48" height="45" viewBox="0 0 48 45" xmlns="http://www.w3.org/2000/svg">
    <clipPath id="clipPath1">
        <path d="M 0 0 L 48 0 L 48 45 L 0 45 Z"/>
    </clipPath>
    <g id="Group" clip-path="url(#clipPath1)">
        <linearGradient id="linearGradient1" x1="-7e-06" y1="22.5" x2="47.9999" y2="22.5" gradientUnits="userSpaceOnUse">
            <stop offset="1e-05" stop-color="#00f3ff" stop-opacity="1"/>
            <stop offset="0.33" stop-color="#4871e6" stop-opacity="1"/>
            <stop offset="0.66" stop-color="#7534ff" stop-opacity="1"/>
            <stop offset="1" stop-color="#ee16e4" stop-opacity="1"/>
        </linearGradient>
        <path id="Path" fill="url(#linearGradient1)" stroke="none" d="M 47.6717 11.521999 C 46.8769 7.705109 44.682499 4.441139 41.503201 2.336498 C 39.2052 0.820454 36.561501 0 33.848801 0 C 30.1166 0 26.6091 1.498219 24 4.102261 C 21.3909 1.498219 17.8834 0 14.1512 0 C 11.4384 0 8.77753 0.802616 6.49675 2.318668 C 3.33477 4.423309 1.14038 7.687279 0.328286 11.5042 C -0.46653 15.320999 0.207336 19.2271 2.26349 22.5089 L 12.095 38.293701 C 14.7041 42.4851 19.162001 45 24 45 C 28.837999 45 33.295898 42.502998 35.904999 38.293701 L 45.753799 22.5089 C 47.792599 19.2449 48.483799 15.3389 47.6717 11.521999 Z M 42.349899 20.2616 L 32.501099 36.046398 C 30.635 39.042801 27.4557 40.826401 24 40.826401 C 20.5443 40.826401 17.365 39.042801 15.4989 36.0285 L 5.66738 20.243799 C 4.1987 17.907301 3.7149 15.107 4.28509 12.378101 C 4.85528 9.667061 6.42764 7.330559 8.69114 5.83234 C 10.3326 4.74435 12.216 4.173599 14.1685 4.173599 C 17.624201 4.173599 20.8034 5.957191 22.6695 8.971458 L 24 11.111801 L 25.3477 8.953629 C 27.2138 5.957191 30.393101 4.173599 33.848801 4.173599 C 35.8013 4.173599 37.6847 4.74435 39.326099 5.83234 C 41.5896 7.348389 43.161999 9.667061 43.732201 12.396 C 44.302399 15.124901 43.8013 17.907301 42.349899 20.2616 Z"/>
        <path id="path1" fill="#ffffff" stroke="none" d="M 43.732201 12.396202 C 43.161999 9.66729 41.5896 7.348621 39.326099 5.832569 C 37.6847 4.744579 35.8013 4.173828 33.848801 4.173828 C 30.393101 4.173828 27.2138 5.95742 25.3477 8.95385 L 24 11.112 L 22.6696 8.971691 C 20.803499 5.95742 17.624201 4.173828 14.1685 4.173828 C 12.2333 4.173828 10.3326 4.744579 8.69115 5.832569 C 6.42765 7.33078 4.8553 9.66729 4.2851 12.396202 C 3.71491 15.125099 4.19871 17.907499 5.66739 20.261801 L 15.4989 36.0466 C 17.365 39.042999 20.5443 40.826599 24 40.844501 C 27.4557 40.844501 30.635 39.060902 32.501099 36.0644 L 42.349899 20.279699 C 43.8013 17.907499 44.302399 15.125099 43.732201 12.396202 Z M 38.945999 17.9967 L 29.0972 33.781399 C 27.9741 35.582901 26.0734 36.653 24 36.653 C 21.9266 36.653 20.0259 35.582901 18.9028 33.781399 L 9.07128 17.9967 C 8.19007 16.587601 7.89633 14.910999 8.24191 13.288 C 8.58748 11.647102 9.52052 10.255901 10.8855 9.346241 C 11.8704 8.68631 12.9935 8.347431 14.1685 8.347431 C 16.241899 8.347431 18.142599 9.417591 19.265699 11.219002 L 24 18.817101 L 28.7516 11.219002 C 29.874701 9.417591 31.7754 8.347431 33.848801 8.347431 C 35.0065 8.347431 36.1469 8.68631 37.131802 9.346241 C 38.496799 10.255901 39.429798 11.647102 39.775398 13.288 C 40.120998 14.910999 39.827202 16.587601 38.945999 17.9967 Z"/>
        <path id="path2" fill="#0b0037" stroke="none" d="M 39.775398 13.287701 C 39.429798 11.646801 38.496799 10.2556 37.131802 9.345978 C 36.1469 8.68605 35.0065 8.347168 33.848801 8.347168 C 31.7754 8.347168 29.874701 9.41732 28.7516 11.2187 L 24 18.816799 L 19.265699 11.2187 C 18.142599 9.41732 16.241899 8.347168 14.1685 8.347168 C 13.0108 8.347168 11.8704 8.68605 10.8855 9.345978 C 9.52052 10.237801 8.58748 11.646801 8.24191 13.269901 C 7.89633 14.910801 8.19007 16.5874 9.07128 17.9786 L 18.9028 33.763302 C 20.0259 35.5648 21.9266 36.634899 24 36.634899 C 26.0734 36.634899 27.9741 35.5648 29.0972 33.763302 L 38.945999 17.9786 C 39.827202 16.5874 40.120998 14.910801 39.775398 13.287701 Z M 35.542099 15.731201 L 25.6933 31.516001 C 25.3132 32.104599 24.673901 32.479099 24 32.479099 C 23.308901 32.479099 22.6696 32.122398 22.3067 31.516001 L 12.4752 15.731201 C 11.8704 14.768101 12.1469 13.466099 13.0799 12.841801 C 14.013 12.217598 15.2743 12.502899 15.8791 13.466099 L 22.963301 24.827499 C 23.187901 25.184299 23.568001 25.434 24.0173 25.434 C 24.466499 25.434 24.846701 25.202101 25.071301 24.827499 L 32.172798 13.466099 C 32.7775 12.502899 34.021599 12.217598 34.971901 12.841801 C 35.887699 13.4839 36.1469 14.768101 35.542099 15.731201 Z"/>
        <path id="path3" fill="#ffffff" stroke="none" d="M 34.937401 12.859699 C 34.004299 12.235401 32.743 12.520798 32.138199 13.4839 L 25.036699 24.8454 C 24.812099 25.202101 24.431999 25.451799 23.9827 25.451799 C 23.533501 25.451799 23.1534 25.219999 22.928699 24.8454 L 15.8445 13.4839 C 15.2397 12.520798 13.9957 12.235401 13.0454 12.859699 C 12.1123 13.4839 11.8359 14.768101 12.4406 15.7491 L 22.2721 31.533899 C 22.6523 32.122501 23.291599 32.497002 23.9655 32.497002 C 24.656601 32.497002 25.2959 32.140301 25.6588 31.533899 L 35.507599 15.7491 C 36.1469 14.768101 35.887699 13.4839 34.937401 12.859699 Z"/>
    </g>
</svg>
